<svg width="200" height="200" viewBox="0 0 200 200" fill="none" xmlns="http://www.w3.org/2000/svg">
<rect width="200" height="200" rx="17" fill="white"/>
<path d="M75.6631 62.7031V134H63.4701V62.7031H75.6631ZM98.0413 62.7031V72.4967H41.2878V62.7031H98.0413ZM144.952 115.637C144.952 114.168 144.724 112.862 144.267 111.72C143.842 110.577 143.075 109.533 141.965 108.586C140.855 107.639 139.288 106.725 137.264 105.844C135.273 104.93 132.727 103.999 129.625 103.052C126.23 102.008 123.096 100.849 120.224 99.5758C117.384 98.27 114.902 96.7683 112.781 95.0707C110.659 93.3405 109.01 91.3655 107.835 89.1456C106.66 86.8931 106.072 84.2979 106.072 81.3598C106.072 78.4544 106.676 75.8101 107.884 73.427C109.124 71.0439 110.871 68.9873 113.123 67.2571C115.408 65.4943 118.102 64.1395 121.203 63.1928C124.304 62.2134 127.732 61.7238 131.486 61.7238C136.775 61.7238 141.329 62.7031 145.148 64.6618C149 66.6205 151.955 69.2485 154.011 72.5456C156.101 75.8428 157.145 79.4827 157.145 83.4654H144.952C144.952 81.115 144.446 79.042 143.434 77.2465C142.455 75.4184 140.953 73.982 138.929 72.9374C136.938 71.8927 134.408 71.3704 131.339 71.3704C128.434 71.3704 126.018 71.8111 124.092 72.6925C122.166 73.5739 120.73 74.7655 119.783 76.2672C118.836 77.7688 118.363 79.4664 118.363 81.3598C118.363 82.6982 118.673 83.9224 119.293 85.0324C119.914 86.1097 120.86 87.1217 122.133 88.0684C123.407 88.9824 125.006 89.8475 126.932 90.6636C128.858 91.4798 131.127 92.2633 133.739 93.0141C137.689 94.1893 141.133 95.4951 144.071 96.9315C147.009 98.3352 149.457 99.9348 151.416 101.73C153.375 103.526 154.844 105.566 155.823 107.851C156.802 110.104 157.292 112.666 157.292 115.539C157.292 118.543 156.688 121.252 155.48 123.668C154.272 126.051 152.542 128.091 150.29 129.789C148.07 131.454 145.393 132.743 142.259 133.657C139.158 134.539 135.697 134.979 131.878 134.979C128.45 134.979 125.071 134.522 121.742 133.608C118.444 132.694 115.441 131.307 112.732 129.446C110.022 127.553 107.867 125.202 106.268 122.395C104.668 119.555 103.868 116.241 103.868 112.454H116.159C116.159 114.772 116.551 116.747 117.335 118.379C118.151 120.012 119.277 121.35 120.713 122.395C122.15 123.407 123.815 124.158 125.708 124.647C127.634 125.137 129.691 125.382 131.878 125.382C134.751 125.382 137.15 124.974 139.076 124.158C141.035 123.341 142.504 122.199 143.483 120.73C144.463 119.261 144.952 117.563 144.952 115.637Z" fill="#5B5BFC"/>
</svg>
